<svg width="36" height="36" viewBox="0 0 36 36" fill="none" xmlns="http://www.w3.org/2000/svg">
<path d="M0 30V18C0 8.05888 8.05888 0 18 0C27.9411 0 36 8.05888 36 18C36 27.9411 27.9411 36 18 36H6C2.68629 36 0 33.3137 0 30Z" fill="#09090B"/>
<path d="M13.125 36L9.84366 15.4316C9.11686 10.8757 12.6366 6.75 17.25 6.75H19.7462C21.9162 6.75 23.7648 7.16444 25.2922 7.99331C26.8196 8.81286 27.9837 9.95373 28.7846 11.4159C29.5949 12.8687 30 14.5451 30 16.445C30 18.3449 29.5902 20.0212 28.7707 21.4741C27.9511 22.9269 26.7637 24.0585 25.2084 24.8687C23.6624 25.679 21.7905 26.0841 19.5926 26.0841H8.42375C7.08515 26.0841 6 24.999 6 23.6604C6 22.3218 7.08515 21.2366 8.42375 21.2366H18.6147C19.7788 21.2366 20.7381 21.0364 21.4924 20.6359C22.2561 20.2261 22.8242 19.6627 23.1967 18.9456C23.5786 18.2192 23.7695 17.3856 23.7695 16.445C23.7695 15.4951 23.5786 14.6662 23.1967 13.9584C22.8242 13.2413 22.2561 12.6871 21.4924 12.296C20.7288 11.8955 19.7602 11.6953 18.5867 11.6953C16.4458 11.6953 14.8122 13.6094 15.1486 15.7238L18.375 36H13.125Z" fill="white"/>
</svg>

