<svg width="125" height="36" viewBox="0 0 125 36" fill="none" xmlns="http://www.w3.org/2000/svg">
<path d="M0 30V18C0 8.05888 8.05888 0 18 0C27.9411 0 36 8.05888 36 18C36 27.9411 27.9411 36 18 36H6C2.68629 36 0 33.3137 0 30Z" fill="#09090B"/>
<path d="M13.125 36L9.84366 15.4316C9.11686 10.8757 12.6366 6.75 17.25 6.75H19.7462C21.9162 6.75 23.7648 7.16444 25.2922 7.99331C26.8196 8.81286 27.9837 9.95373 28.7846 11.4159C29.5949 12.8687 30 14.5451 30 16.445C30 18.3449 29.5902 20.0212 28.7707 21.4741C27.9511 22.9269 26.7637 24.0585 25.2084 24.8687C23.6624 25.679 21.7905 26.0841 19.5926 26.0841H8.42375C7.08515 26.0841 6 24.999 6 23.6604C6 22.3218 7.08515 21.2366 8.42375 21.2366H18.6147C19.7788 21.2366 20.7381 21.0364 21.4924 20.6359C22.2561 20.2261 22.8242 19.6627 23.1967 18.9456C23.5786 18.2192 23.7695 17.3856 23.7695 16.445C23.7695 15.4951 23.5786 14.6662 23.1967 13.9584C22.8242 13.2413 22.2561 12.6871 21.4924 12.296C20.7288 11.8955 19.7602 11.6953 18.5867 11.6953C16.4458 11.6953 14.8122 13.6094 15.1486 15.7238L18.375 36H13.125Z" fill="white"/>
<path d="M45.9176 26.5V9.04545H52.1392C53.4972 9.04545 54.6222 9.29261 55.5142 9.78693C56.4063 10.2812 57.0739 10.9574 57.517 11.8153C57.9602 12.6676 58.1818 13.6278 58.1818 14.696C58.1818 15.7699 57.9574 16.7358 57.5085 17.5938C57.0653 18.446 56.3949 19.1222 55.4972 19.6222C54.6051 20.1165 53.483 20.3636 52.1307 20.3636H47.8523V18.1307H51.892C52.75 18.1307 53.446 17.983 53.9801 17.6875C54.5142 17.3864 54.9062 16.9773 55.1562 16.4602C55.4062 15.9432 55.5312 15.3551 55.5312 14.696C55.5312 14.0369 55.4062 13.4517 55.1562 12.9403C54.9062 12.429 54.5114 12.0284 53.9716 11.7386C53.4375 11.4489 52.733 11.304 51.858 11.304H48.5511V26.5H45.9176ZM63.6129 9.04545V26.5H61.0646V9.04545H63.6129ZM72.5554 26.7642C71.3281 26.7642 70.2571 26.483 69.3423 25.9205C68.4276 25.358 67.7173 24.571 67.2116 23.5597C66.706 22.5483 66.4531 21.3665 66.4531 20.0142C66.4531 18.6562 66.706 17.4687 67.2116 16.4517C67.7173 15.4347 68.4276 14.6449 69.3423 14.0824C70.2571 13.5199 71.3281 13.2386 72.5554 13.2386C73.7827 13.2386 74.8537 13.5199 75.7685 14.0824C76.6832 14.6449 77.3935 15.4347 77.8991 16.4517C78.4048 17.4687 78.6577 18.6562 78.6577 20.0142C78.6577 21.3665 78.4048 22.5483 77.8991 23.5597C77.3935 24.571 76.6832 25.358 75.7685 25.9205C74.8537 26.483 73.7827 26.7642 72.5554 26.7642ZM72.5639 24.625C73.3594 24.625 74.0185 24.4148 74.5412 23.9943C75.0639 23.5739 75.4503 23.0142 75.7003 22.3153C75.956 21.6165 76.0838 20.8466 76.0838 20.0057C76.0838 19.1705 75.956 18.4034 75.7003 17.7045C75.4503 17 75.0639 16.4347 74.5412 16.0085C74.0185 15.5824 73.3594 15.3693 72.5639 15.3693C71.7628 15.3693 71.098 15.5824 70.5696 16.0085C70.0469 16.4347 69.6577 17 69.402 17.7045C69.152 18.4034 69.027 19.1705 69.027 20.0057C69.027 20.8466 69.152 21.6165 69.402 22.3153C69.6577 23.0142 70.0469 23.5739 70.5696 23.9943C71.098 24.4148 71.7628 24.625 72.5639 24.625ZM81.7067 26.5V9.04545H84.255V15.5312H84.4084C84.5561 15.2585 84.7692 14.9432 85.0476 14.5852C85.326 14.2273 85.7124 13.9148 86.2067 13.6477C86.701 13.375 87.3544 13.2386 88.1669 13.2386C89.2237 13.2386 90.1669 13.5057 90.9964 14.0398C91.826 14.5739 92.4766 15.3437 92.9482 16.3494C93.4254 17.3551 93.6641 18.5653 93.6641 19.9801C93.6641 21.3949 93.4283 22.608 92.9567 23.6193C92.4851 24.625 91.8374 25.4006 91.0135 25.946C90.1896 26.4858 89.2493 26.7557 88.1925 26.7557C87.397 26.7557 86.7464 26.6222 86.2408 26.3551C85.7408 26.0881 85.3487 25.7756 85.0646 25.4176C84.7805 25.0597 84.5618 24.7415 84.4084 24.4631H84.1953V26.5H81.7067ZM84.2038 19.9545C84.2038 20.875 84.3374 21.6818 84.6044 22.375C84.8714 23.0682 85.2578 23.6108 85.7635 24.0028C86.2692 24.3892 86.8885 24.5824 87.6214 24.5824C88.3828 24.5824 89.0192 24.3807 89.5305 23.9773C90.0419 23.5682 90.4283 23.0142 90.6896 22.3153C90.9567 21.6165 91.0902 20.8295 91.0902 19.9545C91.0902 19.0909 90.9595 18.3153 90.6982 17.6278C90.4425 16.9403 90.0561 16.3977 89.5391 16C89.0277 15.6023 88.3885 15.4034 87.6214 15.4034C86.8828 15.4034 86.2578 15.5937 85.7464 15.9744C85.2408 16.3551 84.8572 16.8864 84.5959 17.5682C84.3345 18.25 84.2038 19.0455 84.2038 19.9545ZM96.7301 26.5V9.04545H99.2784V15.5312H99.4318C99.5795 15.2585 99.7926 14.9432 100.071 14.5852C100.349 14.2273 100.736 13.9148 101.23 13.6477C101.724 13.375 102.378 13.2386 103.19 13.2386C104.247 13.2386 105.19 13.5057 106.02 14.0398C106.849 14.5739 107.5 15.3437 107.972 16.3494C108.449 17.3551 108.688 18.5653 108.688 19.9801C108.688 21.3949 108.452 22.608 107.98 23.6193C107.509 24.625 106.861 25.4006 106.037 25.946C105.213 26.4858 104.273 26.7557 103.216 26.7557C102.42 26.7557 101.77 26.6222 101.264 26.3551C100.764 26.0881 100.372 25.7756 100.088 25.4176C99.804 25.0597 99.5852 24.7415 99.4318 24.4631H99.2188V26.5H96.7301ZM99.2273 19.9545C99.2273 20.875 99.3608 21.6818 99.6278 22.375C99.8949 23.0682 100.281 23.6108 100.787 24.0028C101.293 24.3892 101.912 24.5824 102.645 24.5824C103.406 24.5824 104.043 24.3807 104.554 23.9773C105.065 23.5682 105.452 23.0142 105.713 22.3153C105.98 21.6165 106.114 20.8295 106.114 19.9545C106.114 19.0909 105.983 18.3153 105.722 17.6278C105.466 16.9403 105.08 16.3977 104.562 16C104.051 15.6023 103.412 15.4034 102.645 15.4034C101.906 15.4034 101.281 15.5937 100.77 15.9744C100.264 16.3551 99.8807 16.8864 99.6193 17.5682C99.358 18.25 99.2273 19.0455 99.2273 19.9545ZM117.063 26.7642C115.836 26.7642 114.765 26.483 113.85 25.9205C112.935 25.358 112.225 24.571 111.719 23.5597C111.214 22.5483 110.961 21.3665 110.961 20.0142C110.961 18.6562 111.214 17.4687 111.719 16.4517C112.225 15.4347 112.935 14.6449 113.85 14.0824C114.765 13.5199 115.836 13.2386 117.063 13.2386C118.29 13.2386 119.362 13.5199 120.276 14.0824C121.191 14.6449 121.901 15.4347 122.407 16.4517C122.913 17.4687 123.165 18.6562 123.165 20.0142C123.165 21.3665 122.913 22.5483 122.407 23.5597C121.901 24.571 121.191 25.358 120.276 25.9205C119.362 26.483 118.29 26.7642 117.063 26.7642ZM117.072 24.625C117.867 24.625 118.526 24.4148 119.049 23.9943C119.572 23.5739 119.958 23.0142 120.208 22.3153C120.464 21.6165 120.592 20.8466 120.592 20.0057C120.592 19.1705 120.464 18.4034 120.208 17.7045C119.958 17 119.572 16.4347 119.049 16.0085C118.526 15.5824 117.867 15.3693 117.072 15.3693C116.271 15.3693 115.606 15.5824 115.077 16.0085C114.555 16.4347 114.165 17 113.91 17.7045C113.66 18.4034 113.535 19.1705 113.535 20.0057C113.535 20.8466 113.66 21.6165 113.91 22.3153C114.165 23.0142 114.555 23.5739 115.077 23.9943C115.606 24.4148 116.271 24.625 117.072 24.625Z" fill="#09090B"/>
</svg>

