<svg width="97" height="96" viewBox="0 0 97 96" fill="none" xmlns="http://www.w3.org/2000/svg">
<path d="M44.3283 20.7648C43.8053 20.7745 43.1575 20.8548 42.6524 20.7162C40.4039 20.0993 44.2954 17.0361 44.866 16.4686C45.7786 15.5606 47.1929 13.8427 48.2854 13.2677C49.1356 13.2149 49.7907 14.1822 50.3386 14.7168L52.6547 16.9891C53.2489 17.5809 55.7916 19.4436 54.88 20.417C54.4109 20.9178 53.2769 20.7584 52.6392 20.7648V24.7049C53.9393 24.7276 55.243 24.7032 56.5435 24.701C59.3926 24.6961 59.2966 24.6331 59.2879 27.2527L59.2855 59.4813C59.2872 60.1531 59.5201 62.1385 59.0592 62.6508C58.7118 63.037 58.0339 63.1208 57.6542 62.7316C57.1729 62.2385 57.3623 61.1153 57.3683 60.4927L57.3655 26.6249H48.9812H39.7144C39.6557 27.6132 39.712 28.6358 39.7131 29.6271L39.7112 59.2917C39.7157 60.1649 40.1648 62.8572 38.8913 63.0468C37.3866 63.2707 37.8149 60.5178 37.8226 59.6613L37.8224 28.1063C37.8179 27.3327 37.7836 26.5484 37.8173 25.7757C37.8814 24.304 39.5729 24.6995 40.6022 24.7006L44.3283 24.7049V20.7648ZM48.4937 15.647C47.5619 16.4186 46.0017 17.9915 45.163 18.9288C46.6043 19.019 46.2106 20.3397 46.2089 21.4092L46.2068 24.7049H48.6171H50.7443L50.7407 21.4636C50.7406 20.1603 50.3423 19.0233 51.8866 18.9288C50.9031 17.9837 49.5593 16.4201 48.4937 15.647Z" fill="#09090B"/>
<path d="M43.9319 33.0883C44.0577 32.5235 44.2624 32.1506 44.8823 32.0851C48.3674 31.9432 47.1261 34.0038 46.2068 34.124C45.1444 34.1221 44.2774 34.2965 43.9319 33.0883Z" fill="#09090B"/>
<path d="M52.1565 34.124C51.6111 34.129 50.802 34.2215 50.3147 33.9563C49.5072 33.5172 49.8893 32.207 50.7445 32.0851C51.8078 32.0208 52.7339 31.8807 53.0699 33.0882C52.9176 33.638 52.7627 33.986 52.1565 34.124Z" fill="#09090B"/>
<path d="M46.3087 38.9832C45.7514 38.9978 44.875 39.0813 44.3905 38.791C43.5385 38.2805 44.0129 37.0915 44.8824 36.956C47.654 36.766 47.7464 38.5542 46.3087 38.9832Z" fill="#09090B"/>
<path d="M51.8867 38.9833C48.8906 39.0639 49.6436 37.0494 51.0283 36.956C54.002 36.8936 53.2509 38.8601 51.8867 38.9833Z" fill="#09090B"/>
<path d="M52.1564 43.8271C51.5646 43.8396 50.6869 43.9531 50.197 43.5644C49.4543 42.9751 49.8951 41.9071 51.0282 41.8216C52.045 41.6686 52.7626 41.7207 53.0697 42.8125C52.9146 43.3681 52.7716 43.7129 52.1564 43.8271Z" fill="#09090B"/>
<path d="M46.3088 43.8271C45.7508 43.834 44.9515 43.9345 44.4512 43.6555C43.5773 43.1678 44.0172 41.9864 44.8825 41.8216C47.9819 41.6238 47.4049 43.5524 46.3088 43.8271Z" fill="#09090B"/>
<path d="M68.7909 48.2789C67.2333 47.9834 63.2325 48.7066 62.0338 48.0402C61.1949 47.5737 61.6232 46.4995 62.4348 46.3389C64.2073 46.1787 67.7098 46.2526 69.483 46.3503C71.1185 46.4405 70.6779 48.1848 70.6792 49.4885L70.6813 56.104C70.6811 56.9844 70.9698 58.3975 69.9339 58.7934C68.1562 58.7401 68.7892 56.1451 68.789 54.7004L68.7909 48.2789Z" fill="#09090B"/>
<path d="M26.3939 58.1823C26.3453 57.7501 26.3892 57.2885 26.3914 56.8525L26.3928 49.5846C26.3839 48.4578 25.9516 46.8509 27.2828 46.3388C27.8614 46.3958 28.4766 46.3448 29.0601 46.3428L32.5971 46.3381C33.4251 46.3411 35.1475 46.0904 35.1567 47.3573C35.1659 48.6367 33.2718 48.2767 32.4721 48.2767L28.2569 48.2789V52.7579L28.2601 55.9988C28.2603 57.1169 28.2348 60.0051 26.3939 58.1823Z" fill="#09090B"/>
<path d="M46.3087 48.6154C43.7407 48.8931 43.2999 47.1066 44.7022 46.5466C45.2191 46.5353 45.8347 46.4665 46.3376 46.5856C47.5321 46.8687 47.1671 48.1846 46.3087 48.6154Z" fill="#09090B"/>
<path d="M52.2763 48.6155C51.7348 48.6427 50.9046 48.7209 50.4169 48.4736C49.5084 48.0133 49.8915 46.7946 50.7443 46.5467C51.2374 46.5394 51.8211 46.4797 52.3007 46.6174C53.3434 46.9161 53.0854 48.2177 52.2763 48.6155Z" fill="#09090B"/>
<path d="M48.4939 61.7011L40.5313 66.8517C39.844 67.3008 36.7151 69.5939 36.0893 69.3546C33.3283 68.299 39.6356 65.1402 40.3221 64.6915L45.3208 61.4309C46.2581 60.826 47.2337 60.0522 48.2856 59.6785C49.2186 59.5484 50.3576 60.6286 51.0898 61.0977L55.9564 64.2593C57.01 64.9418 58.0605 65.6393 59.1251 66.3035C59.7973 66.7229 62.4285 67.8824 61.7361 68.9855C60.9771 70.1946 59.5885 68.9378 58.8041 68.419L56.371 66.8131C53.9273 65.1955 51.4609 63.593 48.9814 62.0307L48.4939 61.7011Z" fill="#09090B"/>
<path d="M23.3837 72.3385C19.4384 68.7576 21.3974 61.7403 26.7094 61.0465C27.9698 60.8905 29.6033 61.9066 30.4606 62.7573C33.2312 65.5058 32.8772 69.6741 30.2177 72.3385C36.5858 73.8451 37.2349 76.9079 37.2237 82.7566C36.5907 82.7541 35.9581 82.7841 35.3254 82.7566C35.3033 80.7462 35.7036 78.2931 34.2966 76.6656C32.6686 74.7822 29.5002 73.9019 27.1112 73.7391C24.3964 73.8441 21.3317 74.4822 19.3444 76.4841C18.1537 77.6834 18.2072 78.6852 18.2108 80.2718L18.215 82.7566H16.2896L16.2854 80.3624C16.2807 75.5136 18.6641 73.5004 23.3837 72.3385ZM26.7094 62.9103C21.4306 64.4727 22.537 71.9393 27.1112 71.8615C30.9218 71.0873 31.5863 65.5591 28.3711 63.5367C27.9595 63.2779 27.2072 62.8384 26.7094 62.9103Z" fill="#09090B"/>
<path d="M66.6211 72.1986C63.101 68.4587 64.4206 61.7444 69.7441 61.1899C72.8066 60.9685 75.0714 63.3758 75.5711 66.2671C76.022 68.875 74.9885 70.3864 73.5972 72.3385C75.4239 72.5956 77.5807 74.1257 78.8746 75.4289C81.1812 77.7518 80.8242 79.7275 80.8192 82.7566H78.9219L78.9254 80.7657C78.9264 76.2413 74.9684 74.2757 70.8974 73.7391C68.2231 73.5878 65.384 74.1449 63.4323 76.0973C61.3557 78.1746 61.6068 80.0498 61.6115 82.7566H59.6518C59.6381 77.2491 60.6224 73.8799 66.6211 72.1986ZM69.9339 63.1112C65.7408 63.6222 65.0039 70.8458 70.3149 71.8615C75.0972 70.786 74.5839 62.9841 69.9339 63.1112Z" fill="#09090B"/>
<path d="M64.5754 82.7565C64.5855 81.6174 64.0718 79.5004 65.4017 79.2266C67.0556 79.0928 66.4772 81.7088 66.4896 82.7565H65.7902H64.5754Z" fill="#09090B"/>
<path d="M73.7701 82.7565C73.7639 81.7607 73.3308 79.6777 74.4683 79.2266C75.0877 79.1323 75.362 79.2619 75.7403 79.7869C75.7597 80.7759 75.7437 81.7672 75.7403 82.7565H75.0597C74.6303 82.7426 74.1997 82.7529 73.7701 82.7565Z" fill="#09090B"/>
<path d="M21.493 82.7565C21.5012 81.7344 21.0274 79.644 22.2626 79.2266C23.9173 79.143 23.3901 81.7486 23.3839 82.7565H22.7074C22.3015 82.772 21.8989 82.7664 21.493 82.7565Z" fill="#09090B"/>
<path d="M30.4026 82.7564C30.4081 81.6235 29.9498 79.9083 31.1071 79.2265C32.9506 79.0893 32.4246 81.6277 32.419 82.7564H31.7716C31.3145 82.7697 30.8596 82.7654 30.4026 82.7564Z" fill="#09090B"/>
</svg>

