<svg width="97" height="96" viewBox="0 0 97 96" fill="none" xmlns="http://www.w3.org/2000/svg">
<path d="M32.2723 34.7223C27.549 35.3378 24.8428 27.9171 28.2986 24.661C29.1328 23.875 30.1552 23.3307 31.3132 23.3697C32.3831 23.0481 33.6697 23.456 34.5665 24.0593C38.6709 26.8208 37.0005 33.8412 32.2723 34.7223ZM31.3132 25.2605C27.1065 25.6139 28.3027 33.4701 32.448 32.7051C36.576 31.1168 35.144 24.0966 31.3132 25.2605Z" fill="#09090B"/>
<path d="M47.0339 37.9539C46.3672 37.7094 46.1396 37.4737 46.1156 36.727C46.0544 34.838 46.1236 32.9262 46.1201 31.0351C46.1139 27.7805 45.3661 23.4539 50.0323 23.3699L57.7068 23.3692C61.0839 23.3682 64.565 22.8344 64.6147 27.4077C64.6276 28.6134 64.7506 32.6754 64.4572 33.6115C63.8696 35.4867 62.1427 35.9007 60.3766 35.8801L58.6953 35.8728L54.6554 35.8715C52.3552 35.866 52.316 35.6292 50.2709 36.559C49.2598 37.019 48.1539 37.5712 47.1061 37.9297L47.0339 37.9539ZM49.8785 25.2607C47.4178 25.5539 48.0311 27.797 48.032 29.6369L48.0329 35.3883C51.5 34.0512 50.6351 33.9459 54.4858 33.9479L59.4534 33.949C62.6979 33.9543 62.7099 33.9847 62.7134 30.8193L62.7112 27.2047C62.6913 24.4869 59.4331 25.2577 57.4563 25.2601L49.8785 25.2607Z" fill="#09090B"/>
<path d="M21.6196 42.9325C22.0046 38.2269 27.2711 36.4582 31.3132 36.4105C35.3926 36.2127 41.6827 37.9469 42.2413 42.7957C41.5694 42.8114 40.8941 42.7964 40.2219 42.7957C40.0124 39.7083 34.8779 38.4725 32.4479 38.2977C28.7765 38.2475 24.6748 38.96 23.4907 42.9325C22.8678 42.9207 22.2427 42.9322 21.6196 42.9325Z" fill="#09090B"/>
<path d="M67.2768 50.6391C65.4185 50.6194 66.5184 49.2793 66.3536 48.6413C66.1766 47.9561 65.685 47.4111 65.5323 46.7031C65.3043 45.6456 65.4108 44.0089 66.7158 43.7869C68.6312 43.6431 67.4263 45.4643 67.4231 45.8839C67.4152 46.9005 69.6819 50.0288 67.2768 50.6391Z" fill="#09090B"/>
<path d="M72.1324 50.639C70.4271 50.8829 71.1184 49.4013 71.0513 48.7906C70.9337 47.7216 68.9385 44.7623 71.3365 43.7868C73.4314 43.6143 72.1483 45.5399 72.1684 46.147C72.2125 47.4706 74.1658 49.8458 72.1324 50.639Z" fill="#09090B"/>
<path d="M16.283 66.8902C16.011 65.2045 15.6486 63.5298 15.3326 61.8517L12.7052 48.0305C12.4436 46.679 11.8713 45.007 13.7119 44.5231C16.4959 44.4576 19.2954 44.5229 22.0815 44.5231L46.3288 44.5263C47.9122 44.5242 51.3493 43.8893 51.2272 46.4504C51.1515 48.041 50.6739 49.6555 50.4156 51.2275C49.5555 56.4588 48.4729 61.6565 47.6308 66.8902C49.8255 66.9134 52.0228 66.8905 54.2179 66.8902C54.2271 68.3688 54.3427 69.3156 53.5907 70.6626H64.4503C61.1644 68.4893 60.546 65.6174 60.5413 62.042L60.5407 58.9657C60.5419 53.2801 60.7084 53.687 65.8369 53.6856L74.7919 53.6838C76.7492 53.6778 78.6754 53.4196 78.8301 55.9253C81.4086 55.8648 83.6342 57.2701 84.2501 59.8709C85.0046 63.6558 82.1218 66.2037 78.4262 65.86C77.8479 67.9936 76.6575 69.2892 74.9942 70.6626L80.1384 70.6617C80.9246 70.6598 83.4609 70.4165 84.0677 70.9488C84.8441 71.6298 84.2651 72.5815 83.3692 72.6136C82.5476 72.6428 81.7149 72.6132 80.8924 72.6126L19.0303 72.6162C16.3425 72.6072 14.6364 70.502 14.6874 67.9113C14.7068 66.929 15.4513 66.8352 16.283 66.8902ZM14.5267 46.4281L14.4322 46.4797C14.3487 47.0853 14.7096 48.2658 14.8318 48.901L15.7328 53.5445C16.5776 57.9893 17.3385 62.4556 18.2355 66.8902H45.6881C45.8713 65.8647 46.1451 64.8053 46.1192 63.7604C46.5456 62.7741 46.6329 61.5376 46.8202 60.478L47.6297 55.9041C48.1646 52.7406 48.7897 49.5944 49.3132 46.4281H14.5267ZM62.4319 55.6056C62.274 56.2135 62.4097 62.5435 62.4324 63.3817C62.6062 69.8015 70.2656 72.7113 74.8134 68.3703C77.1669 66.0061 76.9532 63.7733 76.9517 60.7115L76.9491 55.6056L67.2654 55.6045C65.6612 55.6043 64.0327 55.5428 62.4319 55.6056ZM78.8301 57.8131V64.0255C79.9003 64.0295 80.7737 63.9218 81.5713 63.1432C83.6362 60.8603 81.8869 57.6794 78.8301 57.8131ZM39.8874 68.846H16.6413C17.6933 71.3466 20.2159 70.6679 22.533 70.6643L29.1172 70.6626L47.9361 70.6653C49.6744 70.6668 51.6772 71.0196 52.2105 68.846H39.8874Z" fill="#09090B"/>
</svg>

