<svg width="97" height="96" viewBox="0 0 97 96" fill="none" xmlns="http://www.w3.org/2000/svg">
<path d="M77.513 32.9912L77.5105 25.7732C77.5103 24.2835 76.9049 21.5955 78.4546 21.1348L81.2898 21.1318C82.0214 21.1305 83.4672 20.8672 83.6028 21.8931C83.7453 22.9714 83.6429 24.4417 83.6427 25.5591L83.6444 32.9912C84.3237 32.9867 85.6698 32.8063 86.1997 33.2713C86.8567 33.8475 86.2351 34.7741 85.5029 34.8409C84.9487 34.8915 84.3217 34.812 83.7571 34.8118L64.1262 34.8116C63.2622 34.7437 62.6146 33.9336 63.1893 33.3332C63.662 32.8393 65.4488 32.9906 66.1413 32.9912L66.137 28.8315C66.1328 27.7712 65.6843 25.8268 67.2509 25.7914C68.1916 25.77 70.7416 25.7062 71.5216 25.8381C72.7313 26.0428 72.3224 27.4024 72.3202 28.2739L72.3179 32.9912H77.513ZM79.3405 23.0059V32.9912H81.8313V23.0059H79.3405ZM68.0408 27.6615V32.9912C68.8612 33.0287 69.689 32.9872 70.5104 32.9912C70.5449 32.3466 70.5183 31.6897 70.5158 31.0436L70.5104 27.6615H68.0408Z" fill="#09090B"/>
<path d="M47.112 33.2733C47.1193 32.5038 46.9899 31.9554 47.7667 31.555C49.5326 31.4125 48.9262 33.8555 48.9258 35.1522L48.9234 41.7241C56.7253 41.152 57.8469 53.0827 48.9234 53.1089L48.9275 62.363C48.9285 62.8505 49.0693 63.71 48.7093 64.1043C47.5605 65.3624 47.0644 63.5176 47.112 62.4507C42.4777 59.918 37.6357 58.1538 32.6469 56.4954L30.0257 55.6375C28.9114 55.2772 28.1497 55.078 26.9846 55.0514C27.0298 55.5459 26.9777 56.0784 26.9822 56.5782C26.9975 58.3315 27.2688 59.0272 25.2082 58.9685C25.5581 59.7277 25.7462 60.5167 25.9594 61.3222L27.8589 68.3647C28.1992 69.5626 28.806 70.7212 28.2677 71.944C27.7331 72.8495 25.3498 74.041 24.3789 74.422C21.6622 75.4876 21.3322 71.7565 20.8633 69.9929L19.0217 62.9634C18.6986 61.7433 18.4081 60.5002 18.0466 59.2919C17.4489 57.2935 17.608 57.2373 17.6169 55.0514C15.9322 54.739 15.0455 53.5077 15.025 51.8202C9.85218 51.9669 9.52625 44.5237 15.025 44.5074C15.0214 40.5269 17.72 40.7926 20.6447 40.7937C24.7564 40.7952 26.3602 41.077 30.3341 40.0323C35.9707 38.5505 42.2252 36.4932 47.112 33.2733ZM47.112 35.4324C41.9902 38.1655 37.8553 39.8937 32.1348 41.44C31.0335 41.7376 29.895 42.0955 28.7775 42.3115V53.3791C30.5912 53.8938 32.3679 54.5298 34.1777 55.0514C38.8271 56.6131 42.7312 58.3105 47.112 60.3625L47.111 38.9219C47.1109 38.6296 47.1928 35.5169 47.112 35.4324ZM17.8647 42.6095C17.0745 42.8737 16.8731 43.3304 16.8334 44.1009C16.7728 45.2752 16.708 51.8229 16.9304 52.5273C17.3492 53.8537 24.5484 53.2441 26.0257 53.2445H26.9846V42.6095L20.94 42.6076C19.9173 42.6072 18.8861 42.5776 17.8647 42.6095ZM48.9234 43.52V51.2819C50.2378 51.2714 51.2857 51.0892 52.2615 50.1369C54.9298 47.2675 52.8429 43.4842 48.9234 43.52ZM14.3775 46.3679C12.7152 46.7225 12.188 48.8821 13.7496 49.8033C14.1732 49.96 14.5775 49.976 15.025 49.9908V46.3679C14.8108 46.3664 14.5909 46.354 14.3775 46.3679ZM19.8311 55.0514C19.1528 55.0852 19.4375 56.5443 19.4392 57.1597H24.9335L25.1396 57.1505C25.2872 56.9688 25.2108 55.3989 25.2082 55.0514H19.8311ZM19.8311 58.9685C20.1581 60.2759 20.5342 61.5723 20.8781 62.8756L23.5309 72.7685C24.245 72.4732 24.9067 72.065 25.5729 71.6767L26.7118 71.0765C26.429 69.8568 26.0443 68.6658 25.7194 67.4574L24.3624 62.2246C24.0827 61.1722 23.6284 60.0489 23.5309 58.9685H19.8311Z" fill="#09090B"/>
<path d="M59.3898 43.7202C58.7354 43.7956 58.1772 43.1073 58.4382 42.4777C58.609 42.065 63.0222 37.5925 63.7428 37.3162C64.9244 37.3212 65.0937 38.2424 64.3731 39.0277C63.6246 39.8435 60.17 43.3908 59.3898 43.7202Z" fill="#09090B"/>
<path d="M66.4649 47.7517L62.4953 47.7543C61.7787 47.7543 61.0079 47.8043 60.2967 47.7175C59.0423 47.5647 59.0114 46.135 60.4997 45.9008C61.4787 45.8894 66.4656 45.7621 67.0148 46.1084C67.8126 46.6115 67.2794 47.6759 66.4649 47.7517Z" fill="#09090B"/>
<path d="M64.1263 56.5113C63.1436 56.8043 62.0516 55.1808 61.3762 54.5028C60.5552 53.6779 57.2471 51.3288 59.0447 50.3029C59.2496 50.2853 59.4559 50.2973 59.6612 50.3029C60.101 50.5503 64.3185 54.8108 64.611 55.2679C64.9224 55.7547 64.5296 56.2536 64.1263 56.5113Z" fill="#09090B"/>
<path d="M76.6291 72.4354L76.6304 59.9779C76.6302 58.6485 76.1201 53.9541 77.2222 53.3792C78.0434 53.3308 78.8902 53.3747 79.7148 53.3738C83.2861 53.3695 82.8078 52.9879 82.8089 56.6687L82.8086 72.4354C83.5473 72.432 85.0617 72.3015 85.6786 72.6595C86.5462 73.1627 86.1086 74.2723 85.2402 74.4115C84.6592 74.5047 83.6206 74.4111 82.9854 74.4111L64.2654 74.4118C63.1471 74.412 57.3275 74.68 56.684 74.1711C56.2721 73.8452 56.2818 73.1505 56.6345 72.7864C57.1263 72.2788 58.7225 72.4348 59.3898 72.4354L59.3889 66.9201C59.3883 66.1182 59.3064 65.2512 59.3898 64.458C60.1216 63.7932 63.8022 63.9743 64.7656 64.0768C66.0592 64.2147 65.6112 66.4603 65.6107 67.4959L65.6073 72.4354H68.0409L68.0354 60.8312C68.0315 59.9183 67.7347 58.791 68.9778 58.7166C69.8268 58.6658 72.5146 58.5962 73.3497 58.7288C74.7232 58.9467 74.1438 62.7195 74.1436 63.9205L74.1412 72.4354C74.9684 72.4568 75.8013 72.4363 76.6291 72.4354ZM78.4546 55.1907V72.4354H80.9952V55.1907C80.1496 55.1901 79.2997 55.1708 78.4546 55.1907ZM69.8754 60.5218V72.4354H72.3179V60.5218H69.8754ZM61.2869 65.889V72.4354H63.7428V65.889H61.2869Z" fill="#09090B"/>
</svg>

