<svg width="97" height="96" viewBox="0 0 97 96" fill="none" xmlns="http://www.w3.org/2000/svg">
<path d="M37.5394 17.624C37.0765 17.7379 36.6211 17.6413 36.3977 17.1798C36.1302 16.6273 35.7814 13.5297 36.9212 13.0367C38.4957 12.9771 38.2352 14.2337 38.2276 15.4021C38.2214 16.3502 38.5495 17.1157 37.5394 17.624Z" fill="#09090B"/>
<path d="M20.1255 20.5819C20.2309 20.0671 20.3767 19.7804 20.8852 19.5544C21.8299 19.5091 25.7614 22.6068 23.3831 23.4314C22.3198 23.6374 20.3612 21.4152 20.1255 20.5819Z" fill="#09090B"/>
<path d="M51.3466 23.4314C48.3183 23.185 51.8144 20.1037 52.8696 19.5545C53.5851 19.5046 54.2215 20.0003 54.0312 20.7655C53.9061 21.2686 51.8416 23.1303 51.3466 23.4314Z" fill="#09090B"/>
<path d="M27.3679 52.5664C26.4501 50.3738 24.8946 48.58 23.5178 46.6786C15.6859 35.8622 22.7953 21.2391 35.9935 19.7326C48.1418 19.0127 57.1992 31.0981 52.926 42.7178C51.981 45.2877 50.9143 46.3829 49.3766 48.5588C48.4054 49.9336 47.5997 51.403 46.8306 52.8972C50.0068 54.1255 52.9326 56.6777 53.4092 60.2282C53.5052 60.9436 53.6299 64.36 53.3361 64.9036C53.0725 65.3911 52.3487 65.5334 51.9004 65.2302C50.5515 64.318 53.3606 58.8998 48.108 55.7101C47.4531 55.3124 46.7335 55.0446 46.1027 54.6038C44.886 58.2884 43.9406 60.3685 43.7216 64.5653C46.1944 65.6356 45.8449 68.0022 45.8475 70.2137C45.852 74.1336 46.1001 75.706 41.9269 77.5122C41.5423 79.6804 40.5347 82.0904 38.2358 82.7691C35.0944 83.9633 32.6955 80.2945 32.4501 77.5122C28.495 76.0052 28.5175 74.2007 28.5148 70.546C28.5131 68.287 28.1546 65.7762 30.591 64.5653C30.7245 61.7858 29.4683 56.8416 28.2542 54.3321C25.1856 55.5154 23.0738 58.5062 22.8988 61.7873C22.867 62.3862 23.23 65.8996 21.4455 64.9817C20.7295 64.6135 20.8821 63.6055 20.883 62.9491C20.8883 58.9107 23.1321 53.6352 27.3679 52.5664ZM36.2342 21.7021C31.7194 22.2861 28.3037 23.8727 25.4164 27.6197C21.3505 32.8964 21.4223 40.3849 25.2947 45.7161C26.0363 46.7372 26.8633 47.6866 27.5531 48.7471C30.094 52.6534 32.7801 59.4293 32.5453 64.2593H36.2342L36.232 52.7382C36.232 51.883 36.1003 49.2857 37.8589 50.5388C38.3914 51.2054 38.2395 52.0606 38.239 52.8638L38.2358 64.2593H41.8258C41.7546 59.0035 44.6443 52.198 47.4182 47.9408C48.0855 46.9167 48.8846 46.018 49.5731 45.0179C56.4265 35.0629 48.4046 20.9603 36.2342 21.7021ZM31.8814 66.2455C30.481 66.4673 30.4856 67.7393 30.4594 68.8936H42.4766H43.8685C43.8746 65.3837 41.917 66.244 39.0317 66.2432L31.8814 66.2455ZM30.4594 70.8861C30.426 75.2716 31.5495 75.5547 35.668 75.5575L39.8438 75.5551C41.0331 75.5517 42.0435 75.5612 42.9655 74.7002C44.0837 73.4378 43.8818 72.4463 43.8685 70.8861H30.4594ZM34.3551 77.5122C34.9412 79.6797 36.6908 82.5959 38.8826 79.9879C39.4065 79.2319 39.7208 78.4214 39.864 77.5122H34.3551Z" fill="#09090B"/>
<path d="M32.6819 42.0233C29.2956 44.1036 30.3411 39.5976 30.7379 37.699C31.3722 34.6646 34.1926 28.2698 36.9212 26.4881C37.915 26.4135 39.667 29.0081 40.2182 29.815C42.2656 32.8118 43.4997 36.2224 43.9744 39.8091C44.4916 43.7151 43.351 42.1451 41.3813 41.6766C41.3192 44.1521 40.1882 45.3261 37.8587 46.1543C35.0487 46.3378 33.3047 44.671 32.6819 42.0233ZM37.1586 29.1583C34.5417 31.9646 32.6976 36.0703 32.4499 39.9071C34.3825 39.0668 34.5308 37.6787 37.1586 37.5576C38.7197 37.6856 39.8746 38.3815 40.8351 39.5839C41.1966 39.6388 41.5727 39.6769 41.9267 39.7661C41.5667 36.616 39.5605 31.4104 37.1586 29.1583ZM36.9212 39.5839C33.9087 39.897 34.0609 44.167 37.3587 44.122C40.8122 43.5413 39.3467 39.0626 36.9212 39.5839Z" fill="#09090B"/>
<path d="M73.2968 42.9672C72.3681 42.1806 68.9468 39.631 69.8428 38.4486C70.2516 37.9092 72.3865 37.3332 73.0506 37.0958L80.6115 34.3232C81.2211 34.0941 81.8884 33.7742 82.5296 33.6677C84.1376 33.7382 83.5388 35.419 83.3359 36.4401C83.0117 38.0708 82.6515 39.6919 82.3114 41.319L81.4172 45.5897C80.6796 49.1895 80.8613 50.6387 77.4581 47.1973C76.5355 46.264 75.6222 45.3222 74.6863 44.4019C73.0652 47.3607 71.524 49.5207 69.042 51.8382C65.1002 55.5186 61.2443 57.5393 59.6155 63.1161C57.9589 68.7874 56.3672 72.3396 50.3607 74.997C50.0007 75.1482 49.6401 75.2595 49.2591 75.3437C48.8303 75.2009 48.4851 74.9749 48.3793 74.4944C48.1453 73.4322 49.7861 73.0705 50.4619 72.7195C53.5352 71.122 56.0725 68.3442 57.0604 64.9879C58.7248 59.334 60.0092 56.697 64.8627 52.702C69.0741 49.2355 70.3268 47.8401 73.2968 42.9672ZM81.1879 36.2788C78.3041 37.348 75.4226 38.4613 72.5078 39.4412C73.6217 40.6215 74.9389 41.7036 75.9516 42.9672C77.1394 43.8994 78.1298 45.1409 79.2585 46.1543C79.4305 45.2359 81.3244 36.4783 81.235 36.2882L81.1879 36.2788Z" fill="#09090B"/>
<path d="M16.8673 37.6567C16.1304 37.6561 14.0538 37.8316 13.5046 37.4277C12.6119 36.7715 13.3516 35.8015 14.5362 35.7183C15.2907 35.7138 17.3362 35.5409 17.9219 36.0112C18.75 36.676 18.079 37.6343 16.8673 37.6567Z" fill="#09090B"/>
<path d="M59.8705 37.6565C59.4632 37.711 56.922 37.732 56.6192 37.5901C55.7438 37.1798 56.0871 35.9748 56.8902 35.7181C57.6368 35.6917 59.0661 35.6288 59.7899 35.7181C61.0169 35.8696 61.0424 37.4172 59.8705 37.6565Z" fill="#09090B"/>
<path d="M73.8711 70.3003C69.5894 70.3209 70.0905 70.7818 70.092 66.7974L70.0947 56.2052C70.0945 54.605 69.4682 52.6419 71.4735 52.5664C72.2839 52.5634 73.8782 52.4587 74.6121 52.6189C75.661 52.8476 75.2774 55.2686 75.277 56.1662L75.2787 66.5049C75.2798 67.4364 75.3237 68.3919 75.2672 69.321C75.2089 70.2791 74.7244 70.275 73.8711 70.3003ZM72.0694 54.6037V68.316H73.297V54.6037H72.0694Z" fill="#09090B"/>
<path d="M64.2025 70.3004C63.2245 69.5347 63.679 64.717 63.679 63.329L63.6745 61.021C63.6664 60.0391 63.3251 58.9169 64.6508 58.855C65.316 58.8532 68.1495 58.742 68.5076 59.0095C69.0413 59.4084 68.8517 60.3905 68.8519 60.9667L68.8513 67.3184C68.8506 68.4959 69.2597 70.1806 67.7906 70.3004C66.5961 70.2991 65.3963 70.3349 64.2025 70.3004ZM65.6599 60.8791V68.3161C66.0533 68.3184 66.4478 68.3266 66.8411 68.3161V60.8791C66.4476 60.8742 66.0531 60.8634 65.6599 60.8791Z" fill="#09090B"/>
<path d="M61.6004 70.3003C61.1699 70.3701 60.5832 70.1758 60.463 69.7071C60.3162 69.1335 60.3467 65.2149 60.4199 64.5045C60.4701 64.0142 60.7574 63.7901 61.2242 63.6611C61.7003 63.6726 62.0558 63.9231 62.3704 64.2593C62.4008 65.2847 62.3693 66.3167 62.3725 67.3427C62.3757 68.3179 62.7541 69.8723 61.6004 70.3003Z" fill="#09090B"/>
</svg>

